<?xml version="1.0" encoding="UTF-8"?>
<svg width="24px" height="24px" viewBox="0 0 24 24" version="1.1" xmlns="http://www.w3.org/2000/svg" xmlns:xlink="http://www.w3.org/1999/xlink">
    <title>Icons/General/Bag</title>
    <g id="Icons/General/Bag" stroke="none" stroke-width="1" fill="none" fill-rule="evenodd">
        <rect id="Container" x="0" y="0" width="24" height="24"></rect>
        <g id="Group" transform="translate(2.000000, 1.000000)" stroke="#fff" stroke-width="1.4375">
            <path d="M17.6775525,6.46875 C17.8682478,6.46875 18.0423417,6.54322284 18.1714188,6.66529542 C18.300496,6.78736799 18.3845565,6.9570403 18.3951852,7.14743922 L18.3951852,7.14743922 L19.1976483,21.5224392 C19.2087108,21.720608 19.1384022,21.9045001 19.0157858,22.0416157 C18.8966006,22.1748943 18.7279942,22.2639776 18.5366575,22.2790185 L18.5366575,22.2790185 L1.51998439,22.28125 C1.32150705,22.28125 1.14181955,22.2008012 1.01175139,22.070733 C0.885321451,21.9443031 0.805773795,21.7709908 0.801422545,21.5791105 L0.801422545,21.5791105 L1.60481481,7.14743922 C1.61544354,6.9570403 1.69950404,6.78736799 1.82858119,6.66529542 C1.95765835,6.54322284 2.13175215,6.46875 2.32244751,6.46875 L2.32244751,6.46875 Z" id="Bag"></path>
            <path d="M5,8.625 L5,4.7809976 C5,2.14051626 7.23856655,0 10,0 C12.7614334,0 15,2.14051626 15,4.7809976 L15,8.625" id="Handle" stroke-linejoin="round"></path>
        </g>
    </g>
</svg>