<svg xmlns="http://www.w3.org/2000/svg" width="32" height="32" viewBox="0 0 32 32">
    <g fill="none" fill-rule="evenodd">
        <circle cx="16" cy="16" r="15.5" stroke="#132466"/>
        <path fill="#132466" d="M15.757 13.3c.62 0 1.099.182 1.434.547.336.364.504.837.504 1.42 0 .12-.01.333-.034.637s-.067.583-.13.836l-.641 2.764c-.053.221-.1.475-.141.76-.042.284-.063.501-.063.646 0 .367.067.618.202.75.136.134.37.2.702.2.156 0 .334-.033.53-.1.198-.066.258.68.258.68-.515.248-.927.436-1.234.566-.307.13-.664.194-1.07.194-.624 0-1.11-.186-1.456-.555-.347-.371-.52-.841-.52-1.411 0-.221.013-.448.04-.68.025-.231.067-.492.124-.784l.645-2.774c.057-.265.106-.517.145-.755.04-.237.058-.454.058-.65 0-.355-.06-.602-.18-.742-.12-.139-.349-.21-.689-.21-.167 0-.338.033-.512.096-.176.063-.279-.675-.279-.675.422-.209.826-.388 1.212-.536.386-.15.75-.224 1.095-.224zm1.041-4.5c.483 0 .896.177 1.238.53.343.352.514.778.514 1.274 0 .497-.17.922-.514 1.27-.342.351-.755.526-1.238.526-.484 0-.898-.175-1.244-.526-.346-.348-.519-.773-.519-1.27 0-.496.173-.922.519-1.275.346-.353.76-.529 1.244-.529z"/>
    </g>
</svg>