<?xml version="1.0" encoding="UTF-8"?>
<svg width="192px" height="72px" viewBox="0 0 192 72" version="1.1" xmlns="http://www.w3.org/2000/svg" xmlns:xlink="http://www.w3.org/1999/xlink">
    <title>Logo/Text/Obagi Copy</title>
    <g id="Logo/Text/Obagi-Copy" stroke="none" stroke-width="1" fill="none" fill-rule="evenodd">
        <g id="Obagi-Logo" transform="translate(23.000000, 18.000000)" fill="#FFFFFF">
            <path d="M25.3707287,18.0105924 C25.3707287,24.6551491 23.0406532,34.3669767 14.739082,34.3669767 C6.44112335,34.3669767 4.11104788,24.6551491 4.11104788,18.0105924 C4.11104788,11.3875857 6.44112335,1.65420816 14.739082,1.65420816 C23.0406532,1.65420816 25.3707287,11.3265276 25.3707287,18.0105924 L25.3707287,18.0105924 Z M0,18.0105924 C0,31.7630288 8.14262031,35.9904035 14.739082,35.9904035 C21.3391563,35.9904035 29.4817766,31.7630288 29.4817766,18.0105924 C29.4817766,4.25815603 21.3391563,0.0343730024 14.739082,0.0343730024 C8.14262031,0.0343730024 0,4.25815603 0,18.0105924 L0,18.0105924 Z M72.6730669,22.0368346 L78.8577013,2.51979635 C78.8577013,2.51979635 84.8183595,20.1548088 85.1832241,22.0368346 L72.6730669,22.0368346 Z M93.5498206,35.4516557 L82.571372,0.533612663 L77.7631078,0.533612663 L66.7521465,35.4516557 L68.4283558,35.4516557 L72.1059013,23.7644193 L85.7431647,23.7644193 L89.3340096,35.4516557 L93.5498206,35.4516557 Z M132.286874,35.4552473 L136.12337,35.4552473 L136.12337,0.533612663 L132.286874,0.533612663 L132.286874,35.4552473 Z M124.621106,17.9818592 L111.485983,17.9890425 L111.485983,19.4364784 L120.629271,19.5945111 C120.629271,19.5945111 120.607596,23.2939129 120.607596,25.089739 C120.607596,30.1360104 118.198045,32.9841906 115.112953,33.9898532 C113.277793,34.5932508 111.388445,34.4926845 109.542447,34.0185864 C107.674774,33.537305 102.920698,31.5080215 101.674378,23.2292631 C101.305901,20.7941229 101.240876,18.3446161 101.392602,15.8915176 C101.822492,8.93089559 104.369318,5.342835 106.070815,3.81638281 C109.318471,0.896369539 114.332649,1.14060189 117.125127,3.93131568 C118.487047,5.29255187 119.332377,6.93034529 119.957343,8.7118048 C120.040431,8.9452622 120.148806,9.17153629 120.242732,9.38344377 L124.144253,9.38344377 C124.046715,9.02427854 123.978077,8.72976306 123.880539,8.44243088 C122.72092,4.93338665 120.42697,2.42641339 116.998689,1.04721893 C114.307361,-0.0338683901 111.45347,-0.303242308 108.621254,0.357621703 C104.723345,1.26271807 97.8956823,4.43055534 97.2923914,16.8361222 C97.2165285,18.3589827 97.3682544,19.8890266 97.49108,21.4154788 C98.1810714,30.2042518 103.523989,34.4244431 106.973945,35.2900313 C111.435408,36.4142185 115.755982,36.3208355 119.816454,34.1550692 C121.951454,33.0201071 124.317654,31.1165314 124.566918,25.8368027 C124.678906,23.3837042 124.621106,17.9818592 124.621106,17.9818592 L124.621106,17.9818592 Z M40.8214772,16.3799823 C43.6789806,16.3799823 46.4172708,16.4015322 49.1555611,16.3656157 C49.953928,16.3584324 50.7739701,16.2758244 51.5506619,16.0890585 C57.3343066,14.6990891 56.6334777,8.84828759 56.4420141,7.37571017 C55.9398738,2.08161478 49.7949771,2.25401408 47.5696647,2.12830625 C45.5683286,2.01337338 43.5597674,2.09957304 41.5512062,2.10675634 C41.2983298,2.10675634 40.8214772,2.13908121 40.8214772,2.13908121 L40.8214772,16.3799823 Z M40.8034146,33.8461871 C40.8034146,33.8461871 46.6918223,33.8928786 49.5782259,33.8246372 C50.7956452,33.7923124 52.0383521,33.6450546 53.2124211,33.3361725 C55.5822343,32.711225 57.1320054,31.2027311 57.677496,28.7604076 C57.9701101,27.4494545 58.0640356,26.1385014 57.9267599,24.7952235 C57.6594334,22.0763428 56.2577756,20.2194586 53.7759743,19.0809048 C51.9480391,18.2368665 49.9972782,18.107567 48.0501299,18.0321423 C45.8934554,17.9459427 43.7295559,18.0070008 41.5692688,18.0177757 C41.3200049,18.0177757 40.8034146,18.0608756 40.8034146,18.0608756 L40.8034146,33.8461871 Z M36.8657677,0.519246054 C36.8657677,0.519246054 44.8963999,0.440229705 48.8665594,0.547979272 C51.2327601,0.605445708 53.5989608,0.892777886 55.8314982,1.82301582 C58.0857108,2.7640287 59.7149573,4.25456438 60.282123,6.69329624 C60.8492886,9.1176615 61.1382902,13.8335009 55.8820735,16.2973743 C55.336583,16.5559733 54.7766423,16.8002056 54.1444513,17.0839462 C55.1848571,17.5329027 56.1385624,17.9172095 57.0705926,18.3517994 C58.5228257,19.0306217 62.5002103,21.3831539 61.9836199,27.3524799 C61.6259805,31.4900633 58.9743907,33.465472 56.5142645,34.3131019 C54.5201534,35.0637572 52.4357293,35.4085559 50.322405,35.4336974 C45.9295806,35.4911639 41.5295311,35.4552473 37.1330941,35.4552473 C37.0644563,35.4552473 36.8657677,35.4444724 36.8657677,35.4444724 L36.8657677,0.519246054 Z M144.219028,4.76098734 L143.283385,1.19447667 C143.283385,1.42434242 143.29061,4.76098734 143.29061,4.76098734 L142.867945,4.76098734 L142.867945,0.533612663 L143.496524,0.533612663 L144.435779,4.11089829 L145.367809,0.533612663 L146,0.533612663 L146,4.76098734 L145.577335,4.76098734 C145.577335,4.76098734 145.588173,1.42434242 145.588173,1.19447667 L144.648917,4.76098734 L144.219028,4.76098734 Z M142.45973,0.533612663 L142.45973,1.03644398 L141.354299,1.03644398 L141.354299,4.76098734 L140.909959,4.76098734 L140.909959,1.03644398 L139.800916,1.03644398 L139.800916,0.533612663 L142.45973,0.533612663 Z" id="Obagi-Navy"></path>
        </g>
    </g>
</svg>