<svg id="Layer_1" data-name="Layer 1" xmlns="http://www.w3.org/2000/svg" xmlns:xlink="http://www.w3.org/1999/xlink" viewBox="0 0 2500 612.06">
  <defs>
    <style>
      .cls-1 {
        fill: none;
      }

      .cls-2 {
        clip-path: url(#clip-path);
      }

      .cls-3 {
        fill: #003087;
      }

      .cls-4 {
        fill: #009cde;
      }

      .cls-5 {
        fill: #012169;
      }
    </style>
    <clipPath id="clip-path">
      <rect class="cls-1" x="-1356.77" y="-534.28" width="5191.24" height="1686.32"/>
    </clipPath>
  </defs>
  <g class="cls-2">
    <g>
      <path class="cls-3" d="M505.16,62.39C478.51,32,430.33,19,368.7,19H189.82A25.63,25.63,0,0,0,164.5,40.59L90.05,513a15.36,15.36,0,0,0,12.78,17.55,16,16,0,0,0,2.4.19H215.66L243.4,354.82l-.86,5.51a25.53,25.53,0,0,1,25.2-21.61h52.48c103.09,0,183.81-41.87,207.39-163,.7-3.59,1.31-7.07,1.83-10.48,7-44.77,0-75.25-24.26-102.84"/>
      <path class="cls-4" d="M1857.1,287.18c-6.75,44.33-40.6,44.33-73.34,44.33h-18.63l13.08-82.76a10.28,10.28,0,0,1,10.15-8.68h8.55c22.29,0,43.34,0,54.2,12.69,6.48,7.59,8.44,18.87,6,34.42m-14.25-115.65H1719.36a17.18,17.18,0,0,0-17,14.49l-49.9,316.63a10.3,10.3,0,0,0,8.58,11.77,10.51,10.51,0,0,0,1.58.12H1726a12,12,0,0,0,11.86-10.12l14.17-89.8A17.15,17.15,0,0,1,1769,400.13h39.07c81.36,0,128.3-39.34,140.56-117.37,5.52-34.11.22-60.92-15.75-79.69-17.56-20.64-48.69-31.56-90-31.56"/>
      <path class="cls-3" d="M976.31,287.18c-6.75,44.33-40.6,44.33-73.35,44.33H884.34l13.07-82.76a10.28,10.28,0,0,1,10.16-8.68h8.55c22.29,0,43.33,0,54.19,12.69,6.5,7.59,8.46,18.87,6,34.42M962.06,171.53H838.58a17.17,17.17,0,0,0-17,14.49L771.71,502.65a10.29,10.29,0,0,0,8.55,11.77,10.77,10.77,0,0,0,1.6.12h59a17.15,17.15,0,0,0,16.94-14.49l13.48-85.42a17.15,17.15,0,0,1,16.94-14.48h39.08c81.36,0,128.29-39.36,140.55-117.39,5.53-34.11.22-60.92-15.74-79.69-17.57-20.64-48.69-31.56-90-31.56m286.69,229.35c-5.74,33.79-32.53,56.48-66.75,56.48-17.15,0-30.89-5.53-39.71-16s-12-25.11-9.26-41.53c5.31-33.5,32.57-56.9,66.26-56.9,16.8,0,30.41,5.57,39.42,16.11s12.63,25.46,10,41.81m82.41-115.11H1272a10.3,10.3,0,0,0-10.19,8.71L1259.27,311l-4.14-6c-12.8-18.58-41.34-24.81-69.84-24.81-65.33,0-121.14,49.52-132,118.94-5.66,34.66,2.37,67.76,22,90.86,18,21.23,43.78,30.06,74.46,30.06,52.67,0,81.87-33.82,81.87-33.82L1229,502.67a10.28,10.28,0,0,0,8.55,11.76,9.74,9.74,0,0,0,1.62.13h53.24a17.16,17.16,0,0,0,17-14.49l32-202.41a10.3,10.3,0,0,0-8.59-11.77,9.5,9.5,0,0,0-1.6-.12"/>
      <path class="cls-4" d="M2129.55,400.86c-5.73,33.79-32.53,56.48-66.75,56.48-17.14,0-30.88-5.53-39.7-16s-12-25.11-9.27-41.53c5.32-33.5,32.56-56.9,66.27-56.9,16.79,0,30.41,5.57,39.42,16.11s12.62,25.46,10,41.81M2212,285.75h-59.13a10.29,10.29,0,0,0-10.19,8.71L2140.06,311l-4.14-6c-12.8-18.58-41.35-24.81-69.85-24.81-65.31,0-121.12,49.52-132,118.94-5.65,34.66,2.39,67.76,22,90.86,18,21.23,43.79,30.06,74.47,30.06,52.68,0,81.88-33.82,81.88-33.82l-2.64,16.44A10.24,10.24,0,0,0,2120,514.56h53.23a17.19,17.19,0,0,0,17-14.49l32-202.41a10.3,10.3,0,0,0-8.58-11.77,9.62,9.62,0,0,0-1.61-.12"/>
      <path class="cls-3" d="M1646.12,285.77h-59.45a17.07,17.07,0,0,0-14.17,7.53l-82,120.75-34.75-116a17.19,17.19,0,0,0-16.45-12.26h-58.42a10.29,10.29,0,0,0-10.29,10.31,10.14,10.14,0,0,0,.55,3.32l65.44,192.11L1375,578.34a10.3,10.3,0,0,0,8.41,16.24h59.39a17.19,17.19,0,0,0,14.09-7.37l197.65-285.28a10.28,10.28,0,0,0-8.44-16.16"/>
      <path class="cls-4" d="M2281.65,180.24,2231,502.67a10.29,10.29,0,0,0,8.59,11.76,9.39,9.39,0,0,0,1.59.13h51a17.18,17.18,0,0,0,17-14.49l50-316.65a10.29,10.29,0,0,0-8.55-11.77,11.07,11.07,0,0,0-1.63-.12h-57a10.26,10.26,0,0,0-10.17,8.69"/>
      <path class="cls-3" d="M505.16,62.39C478.51,32,430.33,19,368.7,19H189.82A25.63,25.63,0,0,0,164.5,40.59L90.05,513a15.36,15.36,0,0,0,12.78,17.55,16,16,0,0,0,2.4.19H215.66L243.4,354.82l-.86,5.51a25.53,25.53,0,0,1,25.2-21.61h52.48c103.09,0,183.81-41.87,207.39-163,.7-3.59,1.31-7.07,1.83-10.48,7-44.77,0-75.25-24.26-102.84"/>
      <path class="cls-3" d="M273.18,165.83a22.42,22.42,0,0,1,22.12-18.9H435.54a294.94,294.94,0,0,1,46.25,3.34,195.65,195.65,0,0,1,22.93,5.13,126.15,126.15,0,0,1,24.69,9.84c7-44.79,0-75.25-24.25-102.85C478.49,32,430.33,19,368.7,19H189.8a25.62,25.62,0,0,0-25.28,21.6L90,513a15.34,15.34,0,0,0,12.75,17.56,15,15,0,0,0,2.41.19H215.64l27.74-175.93Z"/>
      <path class="cls-4" d="M529.43,165.22q-.82,5.26-1.83,10.48c-23.58,121.11-104.31,163-207.4,163H267.71a25.5,25.5,0,0,0-25.19,21.61L215.64,530.7,208,579a13.41,13.41,0,0,0,13.28,15.54h93.09a22.41,22.41,0,0,0,22.12-18.9l.91-4.74,17.54-111.2,1.12-6.15a22.39,22.39,0,0,1,22.13-18.89h13.93c90.18,0,160.79-36.62,181.43-142.6,8.59-44.26,4.14-81.25-18.63-107.21a88.84,88.84,0,0,0-25.49-19.67"/>
      <path class="cls-5" d="M504.73,155.4q-5.4-1.6-11.13-2.87c-3.82-.84-7.77-1.59-11.81-2.23a290.21,290.21,0,0,0-46.27-3.39H295.3a22.37,22.37,0,0,0-22.12,18.92l-29.8,189-.86,5.49a25.5,25.5,0,0,1,25.19-21.61H320.2c103.09,0,183.82-41.87,207.4-163,.7-3.58,1.29-7,1.83-10.48A127.51,127.51,0,0,0,510,157q-2.59-.85-5.3-1.66"/>
    </g>
  </g>
</svg>
