<svg xmlns="http://www.w3.org/2000/svg" width="77" height="77" viewBox="0 0 77 77">
    <g fill="none" fill-rule="evenodd">
        <rect width="77" height="77" fill="#44c4d9" rx="6"/>
        <g stroke="#fff" stroke-linejoin="round">
            <path d="M19.049 45.115c-1.107 0-2.006-.898-2.006-2.005v-5.44c0-1.665-.592-3.277-1.672-4.547l-2.502-2.942-.098-.122c-1.72-2.209-2.745-4.986-2.745-8.003 0-7.198 5.834-13.033 13.033-13.033 7.198 0 13.033 5.835 13.033 13.033 0 3.017-1.025 5.794-2.745 8.003l-.098.122-2.503 2.942c-1.08 1.27-1.672 2.882-1.672 4.547v5.44c0 1.107-.898 2.005-2.005 2.005h-8.02zM26.066 45.115c0 1.661-1.346 3.008-3.007 3.008s-3.008-1.347-3.008-3.008M29.074 38.097L17.043 38.097M0 23.059L4.01 23.059M42.107 23.059L46.118 23.059M23.059 0L23.059 4.01M3.089 34.588L6.562 32.583M39.555 13.535L43.029 11.529M11.529 3.089L13.535 6.562M32.583 6.562L34.588 3.089M3.089 11.529L6.562 13.535M39.555 32.583L43.029 34.588" transform="translate(14.441 15)"/>
        </g>
    </g>
</svg>