<svg xmlns="http://www.w3.org/2000/svg" xmlns:xlink="http://www.w3.org/1999/xlink" width="24" height="24" viewBox="0 0 24 24">
    <defs>
        <path id="prefix__a" d="M12 0c6.628 0 12 5.372 12 12 0 6.37-4.962 11.58-11.232 11.976h-1.536C4.962 23.58 0 18.37 0 12 0 5.372 5.372 0 12 0zm3.28 6h-1.804c-2.164 0-2.926 1.091-2.926 2.927v1.35H9.2v2.25h1.35v6.529h2.7v-6.529h1.803l.239-2.25H13.25l.003-1.126c0-.587.056-.901.898-.901h1.127V6z"/>
    </defs>
    <g fill="none" fill-rule="evenodd">
        <mask id="prefix__b" fill="#fff">
            <use xlink:href="#prefix__a"/>
        </mask>
        <path fill="#FFF" d="M0 23.976L24 23.976 24 -0.024 0 -0.024z" mask="url(#prefix__b)"/>
    </g>
</svg>