<svg xmlns="http://www.w3.org/2000/svg" xmlns:xlink="http://www.w3.org/1999/xlink" width="24" height="24" viewBox="0 0 24 24">
    <defs>
        <path id="prefix__a" d="M12 0c6.628 0 12 5.372 12 12 0 6.37-4.962 11.58-11.232 11.976h-1.536C4.962 23.58 0 18.37 0 12 0 5.372 5.372 0 12 0zm1.277 7.313c-1.049.381-1.712 1.365-1.636 2.44l.025.416-.42-.051c-1.528-.195-2.862-.856-3.995-1.966l-.554-.55-.143.406c-.302.907-.11 1.864.52 2.508.336.356.26.407-.318.195-.202-.067-.378-.118-.395-.093-.059.06.143.83.302 1.136.218.423.663.838 1.15 1.084l.411.195-.486.009c-.47 0-.487.008-.437.186.168.55.831 1.136 1.57 1.39l.52.178-.453.27c-.672.39-1.46.611-2.25.628-.378.008-.688.042-.688.068 0 .084 1.024.56 1.62.746 1.788.55 3.912.313 5.506-.628 1.134-.669 2.267-2 2.796-3.288.285-.686.57-1.94.57-2.542 0-.39.025-.44.496-.906.276-.272.537-.568.587-.653.084-.161.075-.161-.353-.017-.713.254-.814.22-.461-.16.26-.272.57-.764.57-.908 0-.025-.125.017-.268.094-.151.084-.487.212-.739.288l-.453.144-.411-.28c-.227-.152-.546-.322-.714-.373-.428-.118-1.082-.101-1.469.034z"/>
    </defs>
    <g fill="none" fill-rule="evenodd">
        <mask id="prefix__b" fill="#fff">
            <use xlink:href="#prefix__a"/>
        </mask>
        <path fill="#FFF" d="M0 23.976L24 23.976 24 -0.024 0 -0.024z" mask="url(#prefix__b)"/>
    </g>
</svg>